:FULLY-SPECIFIED
:FORCE-ALL-JOINTS-BE-3DOF
:DEGREES
1733
root -5.1333 15.5419 26.8557 920.707 -3.54057 176.37
lfemur -49.7221 23.7862 -22.6271
ltibia 64.4761 0 0
lfoot -16.9422 33.4542 0
ltoes -1.58252 0 0
rfemur -22.777 -18.4116 18.2639
rtibia 71.1817 0 0
rfoot -8.81884 -26.0499 0
rtoes 12.3372 0 0
lowerback 15.0506 2.1152 -4.37948
upperback -1.26349 2.26222 3.25758
thorax -10.0164 1.40747 5.55892
lowerneck 4.49544 -14.8102 -15.8778
upperneck -3.1094 -21.1145 22.5983
head 2.67265 -10.9562 8.46091
lclavicle 3.88864e-14 2.57071e-14 0
lhumerus -50.1161 -48.4427 119.548
lradius 97.5655 0 0
lwrist 39.7132 0 0
lhand -4.34348 40.8084 0
lfingers 7.12502 0 0
lthumb 21.4232 69.658 0
rclavicle 3.88864e-14 2.57071e-14 0
rhumerus 57.1873 30.2658 -18.8318
rradius 108.962 0 0
rwrist -9.73097 0 0
rhand 7.06431 -23.6368 0
rfingers 7.12502 0 0
rthumb 32.2992 -59.867 0
1734
root -5.05466 15.5416 26.887 921.142 -0.734328 175.982
lfemur -49.2798 23.4718 -21.9983
ltibia 65.0294 0 0
lfoot -16.7292 32.9921 0
ltoes -2.3102 0 0
rfemur -23.0788 -19.2109 18.7148
rtibia 70.8696 0 0
rfoot -8.96338 -26.0473 0
rtoes 11.8505 0 0
lowerback 15.0343 2.2676 -4.28535
upperback -1.2757 2.47668 3.16396
thorax -10.0231 1.5033 5.35296
lowerneck 4.25908 -14.6263 -15.7345
upperneck -2.91025 -20.834 22.3896
head 2.67878 -10.7952 8.3868
lclavicle 3.54213e-14 2.47374e-14 0
lhumerus -51.4024 -47.7206 119.268
lradius 98.2074 0 0
lwrist 39.3623 0 0
lhand -4.50629 40.3897 0
lfingers 7.12502 0 0
lthumb 21.2669 69.261 0
rclavicle 3.54213e-14 2.47374e-14 0
rhumerus 56.4797 29.431 -19.4633
rradius 106.538 0 0
rwrist -8.21561 0 0
rhand 6.59683 -23.1913 0
rfingers 7.12502 0 0
rthumb 31.8505 -61.0927 0
1735
root -4.97603 15.5413 26.9184 921.443 2.12057 175.72
lfemur -48.7934 23.116 -21.3429
ltibia 65.5985 0 0
lfoot -16.5141 32.5132 0
ltoes -3.09542 0 0
rfemur -23.4085 -20.0213 19.166
rtibia 70.5169 0 0
rfoot -9.10489 -26.0283 0
rtoes 11.3235 0 0
lowerback 15.0178 2.42432 -4.19099
upperback -1.28651 2.6967 3.06665
thorax -10.0281 1.60152 5.1415
lowerneck 4.01607 -14.436 -15.5855
upperneck -2.70443 -20.5435 22.17
head 2.68415 -10.6283 8.30913
lclavicle 3.17844e-14 2.37218e-14 0
lhumerus -52.7291 -46.9649 118.959
lradius 98.8734 0 0
lwrist 39.0014 0 0
lhand -4.6795 39.9545 0
lfingers 7.12502 0 0
lthumb 21.1005 68.8487 0
rclavicle 3.17844e-14 2.37218e-14 0
rhumerus 55.734 28.5537 -20.1285
rradius 104.002 0 0
rwrist -6.66647 0 0
rhand 6.11092 -22.741 0
rfingers 7.12502 0 0
rthumb 31.3842 -62.3647 0
1736
root -4.89739 15.541 26.9498 921.622 5.01703 175.58
lfemur -48.2666 22.7219 -20.6634
ltibia 66.1808 0 0
lfoot -16.2964 32.0185 0
ltoes -3.93261 0 0
rfemur -23.7631 -20.8402 19.6167
rtibia 70.1266 0 0
rfoot -9.2439 -25.9941 0
rtoes 10.759 0 0
lowerback 15.001 2.58475 -4.09628
upperback -1.29594 2.92154 2.96608
thorax -10.0312 1.70179 4.92514
lowerneck 3.76704 -14.2396 -15.4308
upperneck -2.4925 -20.2435 21.9399
head 2.68884 -10.4559 8.22809
lclavicle 2.79931e-14 2.26649e-14 0
lhumerus -54.0878 -46.1776 118.624
lradius 99.5583 0 0
lwrist 38.6288 0 0
lhand -4.86299 39.505 0
lfingers 7.12502 0 0
lthumb 20.9242 68.4232 0
rclavicle 2.79931e-14 2.26649e-14 0
rhumerus 54.951 27.6378 -20.8254
rradius 101.367 0 0
rwrist -5.09344 0 0
rhand 5.60648 -22.2912 0
rfingers 7.12502 0 0
rthumb 30.9001 -63.6704 0
1737
root -4.81875 15.5407 26.9811 921.691 7.948 175.559
lfemur -47.7033 22.2928 -19.9621
ltibia 66.7733 0 0
lfoot -16.0761 31.5092 0
ltoes -4.8162 0 0
rfemur -24.1395 -21.6652 20.0661
rtibia 69.7018 0 0
rfoot -9.38095 -25.9458 0
rtoes 10.16 0 0
lowerback 14.984 2.74828 -4.00114
upperback -1.30405 3.15043 2.86271
thorax -10.0325 1.80375 4.70448
lowerneck 3.51263 -14.0373 -15.271
upperneck -2.27497 -19.9343 21.7001
head 2.69292 -10.2783 8.1439
lclavicle 2.40647e-14 2.15718e-14 0
lhumerus -55.4703 -45.3611 118.265
lradius 100.257 0 0
lwrist 38.2429 0 0
lhand -5.05665 39.0432 0
lfingers 7.12502 0 0
lthumb 20.7382 67.9865 0
rclavicle 2.40647e-14 2.15718e-14 0
rhumerus 54.1314 26.6874 -21.552
rradius 98.6444 0 0
rwrist -3.50644 0 0
rhand 5.08345 -21.8475 0
rfingers 7.12502 0 0
rthumb 30.3983 -64.9968 0
1738
root -4.74011 15.5404 27.0125 921.663 10.9064 175.653
lfemur -47.1073 21.8316 -19.2415
ltibia 67.3732 0 0
lfoot -15.8527 30.9865 0
ltoes -5.74062 0 0
rfemur -24.5345 -22.4938 20.5132
rtibia 69.2456 0 0
rfoot -9.51657 -25.8846 0
rtoes 9.52924 0 0
lowerback 14.9668 2.91432 -3.90544
upperback -1.31086 3.38261 2.75697
thorax -10.0322 1.90707 4.48015
lowerneck 3.25346 -13.8294 -15.1061
upperneck -2.0524 -19.6166 21.4511
head 2.69644 -10.0959 8.05674
lclavicle 2.00164e-14 2.04471e-14 0
lhumerus -56.8682 -44.5173 117.884
lradius 100.964 0 0
lwrist 37.8422 0 0
lhand -5.26037 38.5713 0
lfingers 7.12502 0 0
lthumb 20.5424 67.5404 0
rclavicle 2.00164e-14 2.04471e-14 0
rhumerus 53.2762 25.7063 -22.3064
rradius 95.8484 0 0
rwrist -1.91537 0 0
rhand 4.54175 -21.4152 0
rfingers 7.12502 0 0
rthumb 29.8785 -66.331 0
1739
root -4.66148 15.5401 27.0439 921.549 13.8851 175.858
lfemur -46.4824 21.3417 -18.504
ltibia 67.9778 0 0
lfoot -15.6259 30.4514 0
ltoes -6.7003 0 0
rfemur -24.945 -23.3233 20.9572
rtibia 68.7609 0 0
rfoot -9.6513 -25.8115 0
rtoes 8.86963 0 0
lowerback 14.9495 3.08224 -3.80911
upperback -1.31642 3.61731 2.64931
thorax -10.0303 2.0114 4.25275
lowerneck 2.99017 -13.6162 -14.9366
upperneck -1.82533 -19.2908 21.1937
head 2.6995 -9.909 7.96683
lclavicle 1.58656e-14 1.92958e-14 0
lhumerus -58.2732 -43.6484 117.482
lradius 101.674 0 0
lwrist 37.4251 0 0
lhand -5.47401 38.0914 0
lfingers 7.12502 0 0
lthumb 20.3372 67.0871 0
rclavicle 1.58656e-14 1.92958e-14 0
rhumerus 52.3859 24.6986 -23.0865
rradius 92.9915 0 0
rwrist -0.330153 0 0
rhand 3.98129 -20.9997 0
rfingers 7.12502 0 0
rthumb 29.3408 -67.6603 0
1740
root -4.58284 15.5398 27.0752 921.362 16.8771 176.17
lfemur -45.8326 20.8261 -17.7521
ltibia 68.5841 0 0
lfoot -15.3956 29.9051 0
ltoes -7.68966 0 0
rfemur -25.3679 -24.1512 21.3972
rtibia 68.2508 0 0
rfoot -9.78567 -25.7277 0
rtoes 8.18401 0 0
lowerback 14.932 3.25146 -3.71203
upperback -1.32076 3.85378 2.54018
thorax -10.0267 2.1164 4.02288
lowerneck 2.72338 -13.3979 -14.7627
upperneck -1.59428 -18.9574 20.9283
head 2.70214 -9.71791 7.87437
lclavicle 1.16297e-14 1.81226e-14 0
lhumerus -59.6771 -42.7565 117.063
lradius 102.381 0 0
lwrist 36.9899 0 0
lhand -5.69748 37.6055 0
lfingers 7.12502 0 0
lthumb 20.1224 66.6285 0
rclavicle 1.16297e-14 1.81226e-14 0
rhumerus 51.4615 23.6681 -23.8904
rradius 90.0867 0 0
rwrist 1.23932 0 0
rhand 3.40199 -20.6064 0
rfingers 7.12502 0 0
rthumb 28.7851 -68.9717 0
1741
root -4.5042 15.5395 27.1066 921.113 19.8752 176.587
lfemur -45.1615 20.2879 -16.9882
ltibia 69.1895 0 0
lfoot -15.1613 29.3488 0
ltoes -8.70315 0 0
rfemur -25.8 -24.975 21.8324
rtibia 67.7185 0 0
rfoot -9.92022 -25.6344 0
rtoes 7.47523 0 0
lowerback 14.9144 3.42135 -3.6141
upperback -1.32393 4.09126 2.43001
thorax -10.0216 2.22172 3.79115
lowerneck 2.45374 -13.1748 -14.5847
upperneck -1.35981 -18.6169 20.6557
head 2.70445 -9.52297 7.77955
lclavicle 7.32589e-15 1.69325e-14 0
lhumerus -61.0715 -41.8439 116.628
lradius 103.081 0 0
lwrist 36.535 0 0
lhand -5.93065 37.1158 0
lfingers 7.12502 0 0
lthumb 19.8983 66.1666 0
rclavicle 7.32589e-15 1.69325e-14 0
rhumerus 50.5036 22.6188 -24.7161
rradius 87.1468 0 0
rwrist 2.78312 0 0
rhand 2.80378 -20.2408 0
rfingers 7.12502 0 0
rthumb 28.2113 -70.2525 0
1742
root -4.42557 15.5392 27.138 920.815 22.8725 177.103
lfemur -44.473 19.7304 -16.2148
ltibia 69.791 0 0
lfoot -14.9228 28.7835 0
ltoes -9.73519 0 0
rfemur -26.2384 -25.7923 22.2619
rtibia 67.1669 0 0
rfoot -10.0555 -25.5326 0
rtoes 6.74615 0 0
lowerback 14.8966 3.59133 -3.51522
upperback -1.32595 4.32897 2.31925
thorax -10.015 2.32703 3.55817
lowerneck 2.18187 -12.9472 -14.4029
upperneck -1.12245 -18.2698 20.3765
head 2.7065 -9.3245 7.68258
lclavicle 2.97152e-15 1.57303e-14 0
lhumerus -62.4481 -40.9126 116.178
lradius 103.768 0 0
lwrist 36.059 0 0
lhand -6.1734 36.6243 0
lfingers 7.12502 0 0
lthumb 19.665 65.7034 0
rclavicle 2.97152e-15 1.57303e-14 0
rhumerus 49.5131 21.5547 -25.5616
rradius 84.1847 0 0
rwrist 4.29136 0 0
rhand 2.18658 -19.9083 0
rfingers 7.12502 0 0
rthumb 27.6194 -71.4896 0
1743
root -4.34693 15.5389 27.1693 920.479 25.8617 177.716
lfemur -43.771 19.1566 -15.4343
ltibia 70.3858 0 0
lfoot -14.6798 28.2105 0
ltoes -10.7802 0 0
rfemur -26.6798 -26.6003 22.6848
rtibia 66.599 0 0
rfoot -10.192 -25.4234 0
rtoes 5.99964 0 0
lowerback 14.8788 3.76078 -3.41528
upperback -1.32687 4.56617 2.20835
thorax -10.007 2.43196 3.32455
lowerneck 1.90841 -12.7153 -14.2176
upperneck -0.882737 -17.9165 20.0913
head 2.70834 -9.12285 7.58366
lclavicle -1.41609e-15 1.45208e-14 0
lhumerus -63.7987 -39.9647 115.717
lradius 104.436 0 0
lwrist 35.5602 0 0
lhand -6.42563 36.1331 0
lfingers 7.12502 0 0
lthumb 19.4226 65.2409 0
rclavicle -1.41609e-15 1.45208e-14 0
rhumerus 48.4908 20.4797 -26.425
rradius 81.2133 0 0
rwrist 5.75412 0 0
rhand 1.55031 -19.6142 0
rfingers 7.12502 0 0
rthumb 27.0091 -72.6704 0
1744
root -4.26829 15.5387 27.2007 920.118 28.8359 178.422
lfemur -43.0593 18.5698 -14.649
ltibia 70.9711 0 0
lfoot -14.4321 27.6308 0
ltoes -11.8326 0 0
rfemur -27.1212 -27.3967 23.1002
rtibia 66.018 0 0
rfoot -10.3303 -25.3081 0
rtoes 5.23853 0 0
lowerback 14.861 3.92911 -3.3142
upperback -1.32672 4.80208 2.09775
thorax -9.99753 2.53619 3.0909
lowerneck 1.63398 -12.4793 -14.029
upperneck -0.641216 -17.5576 19.8008
head 2.71007 -8.91834 7.483
lclavicle -5.81962e-15 1.3309e-14 0
lhumerus -65.1149 -39.0024 115.246
lradius 105.081 0 0
lwrist 35.0369 0 0
lhand -6.6872 35.6444 0
lfingers 7.12502 0 0
lthumb 19.1711 64.7811 0
rclavicle -5.81962e-15 1.3309e-14 0
rhumerus 47.4373 19.3978 -27.3043
rradius 78.2455 0 0
rwrist 7.1615 0 0
rhand 0.894891 -19.3641 0
rfingers 7.12502 0 0
rthumb 26.3806 -73.7819 0
